<?xml version="1.0" standalone="no"?>
<!DOCTYPE svg PUBLIC "-//W3C//DTD SVG 20010904//EN"
 "http://www.w3.org/TR/2001/REC-SVG-20010904/DTD/svg10.dtd">
<svg version="1.0" xmlns="http://www.w3.org/2000/svg"
 width="512.000000pt" height="512.000000pt" viewBox="0 0 512.000000 512.000000"
 preserveAspectRatio="xMidYMid meet">
<metadata>
Created by potrace 1.14, written by Peter Selinger 2001-2017
</metadata>
<g transform="translate(0.000000,512.000000) scale(0.100000,-0.100000)"
fill="#000000" stroke="none">
<path d="M2465 4354 c-351 -61 -687 -291 -966 -660 -32 -44 -62 -83 -67 -89
-53 -69 -191 -303 -266 -454 -91 -181 -232 -527 -271 -666 -1 -5 -25 -18 -52
-27 -179 -63 -248 -297 -135 -454 31 -42 32 -32 -8 -134 -31 -81 -145 -289
-214 -393 -76 -114 -138 -192 -360 -447 -76 -87 -126 -153 -126 -166 0 -12 5
-35 11 -53 23 -66 -182 -61 2549 -61 2765 0 2528 -7 2551 70 9 30 9 46 1 65
-6 14 -85 123 -176 243 -154 205 -211 270 -379 432 -117 112 -144 191 -202
600 -14 101 -30 190 -59 335 -29 143 -64 229 -134 330 -31 44 -61 85 -66 91
-6 6 -36 40 -66 75 -50 58 -101 112 -265 284 -104 108 -208 239 -231 290 -12
27 -34 106 -49 175 -41 194 -59 242 -126 325 -99 126 -220 212 -362 259 -129
43 -376 57 -532 30z m430 -208 c92 -25 174 -70 236 -128 96 -90 128 -149 145
-258 3 -19 10 -55 16 -80 5 -25 11 -54 14 -64 17 -87 90 -233 140 -283 8 -8
14 -16 14 -18 0 -2 -23 -8 -51 -14 -109 -24 -338 -153 -372 -211 -30 -50 -16
-104 33 -133 40 -24 71 -21 116 10 140 95 239 141 324 150 88 9 133 -9 204
-80 141 -143 256 -278 308 -362 54 -87 83 -205 143 -595 2 -14 6 -43 9 -65 18
-122 49 -274 66 -321 10 -30 18 -54 17 -54 -1 0 -77 -2 -168 -4 -92 -2 -171
-6 -175 -9 -5 -2 -30 -8 -57 -11 -65 -9 -96 -25 -113 -57 -18 -35 -18 -63 1
-98 25 -50 79 -60 188 -35 45 11 314 13 372 3 32 -5 79 -19 103 -29 64 -29
189 -155 308 -313 l105 -137 -1601 0 c-1443 0 -1600 2 -1592 16 4 8 41 48 81
89 83 85 174 150 234 166 64 17 188 4 302 -31 116 -36 239 -49 285 -30 53 22
74 85 46 139 -18 34 -54 51 -114 52 -44 0 -90 11 -232 53 -78 23 -244 32 -311
16 -58 -14 -199 -79 -199 -92 0 -4 -5 -8 -10 -8 -29 0 -214 -188 -290 -294
l-54 -76 -526 0 c-289 0 -520 4 -515 8 19 13 196 223 249 295 131 179 216 327
312 547 l33 75 55 6 c68 8 153 48 192 91 72 79 99 192 70 291 -17 60 -77 144
-118 166 l-26 13 33 97 c56 165 125 330 215 513 61 126 122 188 244 247 117
57 211 75 360 68 147 -6 179 6 192 72 13 63 -29 111 -110 125 -65 12 -228 7
-312 -9 -43 -8 -80 -15 -82 -15 -9 0 104 133 198 233 194 207 453 353 685 386
91 13 311 5 380 -13z m-1895 -1883 c66 -38 66 -128 0 -166 -15 -10 -38 -17
-50 -17 -31 0 -76 29 -89 57 -15 34 -14 60 6 93 29 50 83 63 133 33z"/>
<path d="M2693 3942 c-74 -26 -136 -81 -170 -150 -23 -47 -28 -70 -28 -132 1
-124 56 -215 163 -267 48 -24 69 -28 137 -28 88 1 119 13 192 71 84 68 123
208 88 313 -53 159 -228 248 -382 193z m140 -193 c27 -12 57 -58 57 -88 0 -35
-21 -68 -55 -87 -65 -35 -146 15 -145 88 1 71 77 117 143 87z"/>
<path d="M2592 3144 c-24 -16 -51 -63 -47 -79 2 -5 6 -22 9 -37 11 -50 86 -79
137 -52 60 30 70 106 22 157 -31 31 -85 37 -121 11z"/>
<path d="M2164 3081 c-58 -35 -65 -107 -14 -153 41 -38 89 -38 131 0 53 47 39
130 -26 158 -44 18 -54 18 -91 -5z"/>
<path d="M1805 2829 c-74 -42 -73 -140 2 -178 40 -20 73 -13 110 24 31 31 35
40 30 72 -4 20 -17 47 -30 60 -27 28 -83 38 -112 22z"/>
<path d="M2843 2775 c-64 -27 -76 -110 -24 -157 42 -38 90 -38 131 0 52 48 42
125 -20 157 -35 18 -46 18 -87 0z"/>
<path d="M2305 2578 c-108 -22 -155 -58 -155 -117 0 -58 61 -109 116 -98 16 3
55 12 86 18 91 19 160 0 220 -61 52 -54 77 -70 107 -70 51 0 101 50 101 102 0
14 -13 45 -30 69 -47 71 -113 118 -215 151 -41 13 -181 17 -230 6z"/>
<path d="M1821 2417 c-102 -36 -74 -187 34 -187 110 0 136 153 33 189 -17 6
-31 11 -32 10 -1 0 -16 -5 -35 -12z"/>
<path d="M3028 2364 c-83 -44 -57 -168 38 -181 36 -4 46 -1 74 24 27 24 33 37
34 72 1 36 -4 47 -32 72 -36 32 -72 36 -114 13z"/>
<path d="M3769 2211 c-48 -49 -35 -126 27 -156 59 -28 126 6 138 70 18 94 -97
154 -165 86z"/>
<path d="M3373 2105 c-37 -16 -53 -36 -60 -79 -7 -44 16 -82 60 -101 43 -18
82 -9 112 27 67 79 -17 193 -112 153z"/>
<path d="M2910 2019 c-30 -12 -315 -293 -335 -330 -8 -14 -12 -34 -10 -45 2
-10 4 -25 4 -33 1 -16 294 -316 324 -333 33 -17 66 -19 95 -4 15 8 95 83 178
168 163 164 179 191 150 245 -17 33 -301 316 -333 332 -26 13 -40 13 -73 0z
m170 -374 c0 -10 -125 -135 -135 -135 -10 0 -135 125 -135 135 0 4 30 38 68
75 l67 67 68 -68 c37 -37 67 -70 67 -74z"/>
<path d="M1974 2000 c-35 -13 -64 -59 -64 -100 0 -104 154 -128 189 -30 26 77
-51 157 -125 130z"/>
<path d="M1700 1722 c-31 -5 -48 -18 -70 -55 -22 -36 -11 -93 22 -118 90 -69
201 26 147 127 -14 27 -66 51 -99 46z"/>
<path d="M1225 1578 c-34 -31 -46 -76 -30 -116 32 -76 148 -76 180 1 40 96
-72 182 -150 115z"/>
<path d="M903 1290 c-30 -12 -55 -64 -49 -102 7 -42 46 -79 87 -83 93 -8 145
100 80 166 -31 30 -73 37 -118 19z"/>
</g>
</svg>
